<?xml version="1.0" encoding="UTF-8"?>
<svg version="1.1" xmlns="http://www.w3.org/2000/svg" width="64" height="64">
<path d="M0 0 C0.91104492 -0.00945648 1.82208984 -0.01891296 2.76074219 -0.02865601 C3.74204102 -0.02258331 4.72333984 -0.01651062 5.734375 -0.01025391 C6.7440332 -0.01312408 7.75369141 -0.01599426 8.79394531 -0.01895142 C10.92904216 -0.02099329 13.06415766 -0.01545487 15.19921875 -0.00292969 C18.47177871 0.01312181 21.74310356 -0.00277465 25.015625 -0.02197266 C27.0885444 -0.01999025 29.16146303 -0.01614662 31.234375 -0.01025391 C32.70632324 -0.01936295 32.70632324 -0.01936295 34.20800781 -0.02865601 C35.5745752 -0.01447128 35.5745752 -0.01447128 36.96875 0 C38.17096191 0.00358017 38.17096191 0.00358017 39.39746094 0.00723267 C42.03792449 0.48923001 42.91821763 1.22933462 44.484375 3.38818359 C44.78272967 6.29442077 44.90470128 8.98187662 44.8828125 11.88818359 C44.88568268 12.72027344 44.88855286 13.55236328 44.89151001 14.40966797 C44.89355062 16.16813844 44.88802093 17.9266316 44.87548828 19.68505859 C44.85943402 22.37828273 44.87533645 25.07000619 44.89453125 27.76318359 C44.89254882 29.47152024 44.88870514 31.17985596 44.8828125 32.88818359 C44.89192154 34.09764648 44.89192154 34.09764648 44.9012146 35.33154297 C44.83095455 40.91044559 44.83095455 40.91044559 43.24234009 43.10025024 C41.00581499 44.73878976 39.72660669 44.76815433 36.96875 44.77636719 C35.60218262 44.79055191 35.60218262 44.79055191 34.20800781 44.80502319 C33.22670898 44.7989505 32.24541016 44.79287781 31.234375 44.78662109 C30.2247168 44.78949127 29.21505859 44.79236145 28.17480469 44.7953186 C26.03970784 44.79736048 23.90459234 44.79182205 21.76953125 44.77929688 C18.49697129 44.76324538 15.22564644 44.77914184 11.953125 44.79833984 C9.8802056 44.79635743 7.80728697 44.79251381 5.734375 44.78662109 C4.75307617 44.79269379 3.77177734 44.79876648 2.76074219 44.80502319 C1.3941748 44.79083847 1.3941748 44.79083847 0 44.77636719 C-0.80147461 44.77398041 -1.60294922 44.77159363 -2.42871094 44.76913452 C-5.06917449 44.28713718 -5.94946763 43.54703257 -7.515625 41.38818359 C-7.81397967 38.48194642 -7.93595128 35.79449056 -7.9140625 32.88818359 C-7.91693268 32.05609375 -7.91980286 31.22400391 -7.92276001 30.36669922 C-7.92480062 28.60822875 -7.91927093 26.84973558 -7.90673828 25.09130859 C-7.89068402 22.39808446 -7.90658645 19.706361 -7.92578125 17.01318359 C-7.92379882 15.30484694 -7.91995514 13.59651123 -7.9140625 11.88818359 C-7.92013519 11.081875 -7.92620789 10.27556641 -7.9324646 9.44482422 C-7.86220455 3.8659216 -7.86220455 3.8659216 -6.27359009 1.67611694 C-4.03706499 0.03757743 -2.75785669 0.00821286 0 0 Z M8.484375 12.38818359 C8.154375 13.70818359 7.824375 15.02818359 7.484375 16.38818359 C9.464375 17.37818359 9.464375 17.37818359 11.484375 18.38818359 C12.59273923 16.505022 12.59273923 16.505022 13.484375 14.38818359 C13.154375 13.72818359 12.824375 13.06818359 12.484375 12.38818359 C11.164375 12.38818359 9.844375 12.38818359 8.484375 12.38818359 Z M21.25 25.97802734 C20.67636719 26.51492187 20.10273437 27.05181641 19.51171875 27.60498047 C18.92519531 28.1728125 18.33867187 28.74064453 17.734375 29.32568359 C16.83138672 30.17163086 16.83138672 30.17163086 15.91015625 31.03466797 C14.40739899 32.45734633 12.94236393 33.91966006 11.484375 35.38818359 C11.484375 35.71818359 11.484375 36.04818359 11.484375 36.38818359 C19.734375 36.38818359 27.984375 36.38818359 36.484375 36.38818359 C36.97086002 31.60530761 36.97086002 31.60530761 34.875 29.14990234 C34.16859375 28.46541016 33.4621875 27.78091797 32.734375 27.07568359 C32.03828125 26.37830078 31.3421875 25.68091797 30.625 24.96240234 C26.89905353 22.22233587 24.33831859 23.05077645 21.25 25.97802734 Z M8.484375 26.38818359 C6.35295049 27.43929381 6.35295049 27.43929381 4.296875 29.07568359 C3.58144531 29.59517578 2.86601562 30.11466797 2.12890625 30.64990234 C0.02621072 32.47364516 0.02621072 32.47364516 0.484375 36.38818359 C5.16239559 36.11300591 7.23076253 34.05624474 10.34765625 30.86083984 C11.68805136 29.43437003 11.68805136 29.43437003 11.484375 27.38818359 C10.494375 27.05818359 9.504375 26.72818359 8.484375 26.38818359 Z " fill="#FFFFFF" transform="translate(13.515625,9.61181640625)"/>
</svg>
