<?xml version="1.0" encoding="UTF-8"?>
<svg version="1.1" xmlns="http://www.w3.org/2000/svg" width="48" height="48">
<path d="M0 0 C0.66 0 1.32 0 2 0 C3.4453125 1.46875 3.4453125 1.46875 5.125 3.5 C8.3071864 7.26925643 11.69593983 10.67892224 15.30078125 14.04296875 C17.20641965 16.23773849 18.0690673 18.26390845 19 21 C13.22599537 27.53841186 7.41259866 34.07407177 1 40 C0.67 40 0.34 40 0 40 C0 26.8 0 13.6 0 0 Z " fill="#FFFFFF" transform="translate(4,4)"/>
<path d="M0 0 C6.27808499 0.40671979 11.03942782 3.51414528 16.375 6.5625 C17.30183594 7.08263672 18.22867187 7.60277344 19.18359375 8.13867188 C21.46034654 9.41787834 23.73213523 10.70512238 26 12 C24.44805246 15.32759923 22.69378051 17.48580485 20 20 C11.93759828 16.54208504 5.36698537 7.76481757 0 1 C0 0.67 0 0.34 0 0 Z " fill="#FFFFFF" transform="translate(6,2)"/>
<path d="M0 0 C3.36179774 1.44077046 5.59156268 3.24750021 8 6 C8 6.66 8 7.32 8 8 C4.4014499 10.01023376 0.79528775 12.0063998 -2.8125 14 C-3.83666016 14.57234375 -4.86082031 15.1446875 -5.91601562 15.734375 C-6.89892578 16.27578125 -7.88183594 16.8171875 -8.89453125 17.375 C-10.25348511 18.12910156 -10.25348511 18.12910156 -11.63989258 18.8984375 C-14 20 -14 20 -17 20 C-15.35996677 15.98674221 -12.55124416 13.11105958 -9.625 10 C-9.14289062 9.47921875 -8.66078125 8.9584375 -8.1640625 8.421875 C-5.50002964 5.55514398 -2.78689283 2.74726877 0 0 Z " fill="#FFFFFF" transform="translate(24,26)"/>
<path d="M0 0 C3.19653422 1.46127278 6.16793292 3.19987347 9.1875 5 C9.5 7.25 9.5 7.25 9.1875 10 C5.92447958 13.35899161 2.65534311 14.75316006 -1.8125 16 C-3.7925 13.69 -5.7725 11.38 -7.8125 9 C-6.53118464 5.15605393 -4.72606243 0 0 0 Z " fill="#FFFFFF" transform="translate(34.8125,16)"/>
</svg>
