<?xml version="1.0" encoding="UTF-8"?>
<svg version="1.1" xmlns="http://www.w3.org/2000/svg" width="64" height="64">
<path d="M0 0 C4.74366766 3.53449747 8.06795798 7.46884462 9.1875 13.375 C9.70919832 21.3308994 7.47378159 26.63941464 3.1875 33.375 C4.8375 34.035 6.4875 34.695 8.1875 35.375 C8.5175 34.385 8.8475 33.395 9.1875 32.375 C10.5075 32.375 11.8275 32.375 13.1875 32.375 C12.87918574 35.76645689 12.52749434 37.90908183 10.5 40.6875 C7.58285598 42.81622671 5.79909747 43.30276805 2.1875 43.375 C-1.78722063 41.84626129 -3.43103665 40.94719503 -5.8125 37.375 C-7.73844015 37.375 -9.66504761 37.38284647 -11.58984375 37.44921875 C-16.67105217 37.27954747 -20.63956307 35.30801801 -24.5625 32.1875 C-28.18520617 27.65911729 -30.99734645 23.23837425 -31.25 17.3125 C-30.47503284 10.33779555 -28.12741969 5.93064545 -22.8125 1.375 C-15.80633841 -3.40969572 -7.68083752 -3.92463847 0 0 Z M-18.8125 6.375 C-21.53210127 11.89001024 -21.34288401 17.3531015 -20.8125 23.375 C-19.34559344 27.55568368 -17.78100779 30.27402529 -13.8125 32.375 C-11.14488236 32.62624826 -11.14488236 32.62624826 -8.8125 32.375 C-10.03257944 29.6844472 -10.03257944 29.6844472 -11.8125 27.375 C-13.47867115 27.33436168 -15.14638095 27.332279 -16.8125 27.375 C-17.1425 26.055 -17.4725 24.735 -17.8125 23.375 C-11.59880501 22.35575754 -7.32898654 21.74573254 -1.8125 25.375 C0.09580028 23.46669972 -0.59434653 20.22726111 -0.5625 17.6875 C-0.53671875 16.46675781 -0.5109375 15.24601562 -0.484375 13.98828125 C-0.83920948 10.08087777 -1.78682694 7.70819796 -3.8125 4.375 C-9.1108165 0.35558748 -14.46356921 1.90526558 -18.8125 6.375 Z " fill="#FFFFFF" transform="translate(42.8125,14.625)"/>
</svg>
