<?xml version="1.0" encoding="UTF-8"?>
<svg version="1.1" xmlns="http://www.w3.org/2000/svg" width="50" height="50">
<path d="M0 0 C3 0.125 3 0.125 4 1.125 C4 2.775 4 4.425 4 6.125 C7.63 6.125 11.26 6.125 15 6.125 C15.35671933 9.95973284 15.29771416 11.67842875 13.125 14.9375 C9.27891426 18.89670591 5.43087428 18.40924136 0.1875 18.5 C-1.02389648 18.55607422 -1.02389648 18.55607422 -2.25976562 18.61328125 C-6.7332514 18.67922944 -8.42242788 18.59694609 -12.01171875 15.6640625 C-12.66785156 14.82617188 -13.32398438 13.98828125 -14 13.125 C-14.33 12.795 -14.66 12.465 -15 12.125 C-15.04080783 10.12541636 -15.04254356 8.12454746 -15 6.125 C-11.37 6.125 -7.74 6.125 -4 6.125 C-4 4.475 -4 2.825 -4 1.125 C-3 0.125 -3 0.125 0 0 Z M-1 3.125 C-1 3.785 -1 4.445 -1 5.125 C-0.34 5.125 0.32 5.125 1 5.125 C1 4.465 1 3.805 1 3.125 C0.34 3.125 -0.32 3.125 -1 3.125 Z " fill="#FFFFFF" transform="translate(25,-0.125)"/>
<path d="M0 0 C1.39895508 -0.0309375 1.39895508 -0.0309375 2.82617188 -0.0625 C3.71755859 -0.06765625 4.60894531 -0.0728125 5.52734375 -0.078125 C6.75892212 -0.09214355 6.75892212 -0.09214355 8.01538086 -0.10644531 C8.69093018 0.01118164 9.36647949 0.12880859 10.0625 0.25 C12.0625 3.25 12.0625 3.25 12.0625 6.25 C13.3825 6.25 14.7025 6.25 16.0625 6.25 C16.0625 8.23 16.0625 10.21 16.0625 12.25 C5.5025 12.25 -5.0575 12.25 -15.9375 12.25 C-15.9375 10.27 -15.9375 8.29 -15.9375 6.25 C-14.6175 6.25 -13.2975 6.25 -11.9375 6.25 C-11.793125 5.445625 -11.64875 4.64125 -11.5 3.8125 C-10.27944574 -1.74780275 -4.81211373 0.02649478 0 0 Z " fill="#FFFFFF" transform="translate(24.9375,29.75)"/>
<path d="M0 0 C4.53897705 -0.02465392 9.07791543 -0.04283789 13.61694336 -0.05493164 C15.16219766 -0.0599714 16.70744716 -0.0668032 18.25268555 -0.07543945 C20.46925029 -0.08752076 22.68575218 -0.09323173 24.90234375 -0.09765625 C25.5971434 -0.10281754 26.29194305 -0.10797882 27.00779724 -0.11329651 C28.6722933 -0.11349277 30.33665499 -0.06189129 32 0 C33 1 33 1 33 7 C21.78 7 10.56 7 -1 7 C-2 4 -2 4 -1.0625 1.8125 C-0.5365625 0.9153125 -0.5365625 0.9153125 0 0 Z " fill="#FFFFFF" transform="translate(9,43)"/>
<path d="M0 0 C3.3 0 6.6 0 10 0 C10 0.66 10 1.32 10 2 C11.98 2 13.96 2 16 2 C16 3.98 16 5.96 16 8 C8.74 8 1.48 8 -6 8 C-6 6.02 -6 4.04 -6 2 C-4.02 2 -2.04 2 0 2 C0 1.34 0 0.68 0 0 Z " fill="#FFFFFF" transform="translate(20,20)"/>
</svg>
