<?xml version="1.0" encoding="UTF-8"?>
<svg version="1.1" xmlns="http://www.w3.org/2000/svg" width="50" height="50">
<path d="M0 0 C4.21794018 -0.7707911 7.81147101 -1.02086011 12 0 C15.76147245 3.58835029 18.37130462 7.5391836 21 12 C22.10408203 10.700625 22.10408203 10.700625 23.23046875 9.375 C24.21540858 8.24935448 25.20112668 7.12438961 26.1875 6 C26.91163086 5.14148438 26.91163086 5.14148438 27.65039062 4.265625 C31.35915535 0.08393054 31.35915535 0.08393054 34.86328125 -0.375 C35.56839844 -0.25125 36.27351563 -0.1275 37 0 C32.93866463 5.59363406 28.6208599 10.85963514 24 16 C26.92912864 21.47619702 30.38311534 26.51677353 34.00170898 31.55541992 C37 35.78730783 37 35.78730783 37 38 C33.13661582 38.70307911 29.83667521 38.93270028 26 38 C22.6413618 34.72734294 20.398245 31.00308564 18 27 C17.34 26.34 16.68 25.68 16 25 C14.53927468 26.60198888 13.08150284 28.20667116 11.625 29.8125 C10.81289063 30.70582031 10.00078125 31.59914063 9.1640625 32.51953125 C6.90927093 34.99632674 6.90927093 34.99632674 5 38 C2.375 38.1875 2.375 38.1875 0 38 C3.13848307 32.81468014 7.03120365 28.6931117 11.26953125 24.3671875 C13.24957384 22.22611014 13.24957384 22.22611014 12.76245117 20.09082031 C11.93780635 17.8294504 10.91804348 16.14497482 9.53125 14.1796875 C9.04269531 13.47972656 8.55414063 12.77976562 8.05078125 12.05859375 C7.53902344 11.33800781 7.02726563 10.61742187 6.5 9.875 C5.48859259 8.43559147 4.47813044 6.99551816 3.46875 5.5546875 C3.01951172 4.92030762 2.57027344 4.28592773 2.10742188 3.63232422 C1 2 1 2 0 0 Z " fill="#FFFFFF" transform="translate(6,6)"/>
</svg>
